<svg width="322" height="389" viewBox="0 0 322 389" fill="none" xmlns="http://www.w3.org/2000/svg">
<rect width="322" height="389" rx="21" fill="#3CE202"/>
<rect width="322" height="389" rx="21" fill="url(#paint0_linear_0_1)"/>
<rect y="313.221" width="321.641" height="29.4697" fill="#37D200"/>
<rect y="313.221" width="321.641" height="29.4697" fill="url(#paint1_diamond_0_1)" fill-opacity="0.2"/>
<rect y="136.403" width="321.641" height="29.4697" fill="#37D200"/>
<rect y="136.403" width="321.641" height="29.4697" fill="url(#paint2_diamond_0_1)" fill-opacity="0.2"/>
<rect y="195.342" width="321.641" height="29.4697" fill="#37D200"/>
<rect y="195.342" width="321.641" height="29.4697" fill="url(#paint3_diamond_0_1)" fill-opacity="0.2"/>
<rect y="254.281" width="321.641" height="29.4697" fill="#37D200"/>
<rect y="254.281" width="321.641" height="29.4697" fill="url(#paint4_diamond_0_1)" fill-opacity="0.2"/>
<path d="M0 20.842C0 9.79629 8.95431 0.84198 20 0.84198L301.641 0.84198C312.686 0.84198 321.641 9.79629 321.641 20.842V47.9935L0 47.9935L0 20.842Z" fill="#37D200"/>
<path d="M0 20.842C0 9.79629 8.95431 0.84198 20 0.84198L301.641 0.84198C312.686 0.84198 321.641 9.79629 321.641 20.842V47.9935L0 47.9935L0 20.842Z" fill="url(#paint5_diamond_0_1)" fill-opacity="0.2"/>
<rect y="77.4632" width="321.641" height="29.4697" fill="#37D200"/>
<rect y="77.4632" width="321.641" height="29.4697" fill="url(#paint6_diamond_0_1)" fill-opacity="0.2"/>
<rect x="19" y="22" width="285" height="346" stroke="#E5E5E5" stroke-width="2"/>
<line x1="17.6818" y1="193.5" x2="304.801" y2="193.5" stroke="#E5E5E5" stroke-width="2"/>
<rect x="123.931" y="157.61" width="73.7792" height="73.7792" rx="36.8896" stroke="#E5E5E5" stroke-width="2"/>
<rect x="157.452" y="190.29" width="6.73593" height="6.73593" rx="3.36797" fill="#E5E5E5"/>
<path d="M18.1818 32.3236V21.5498H26.4437V23.5757C26.4437 28.247 22.7882 32.0645 18.1818 32.3236Z" stroke="#E5E5E5"/>
<path d="M18.1818 368.292V357.518C22.7882 357.778 26.4437 361.595 26.4437 366.266V368.292H18.1818Z" stroke="#E5E5E5"/>
<path d="M304.301 357.518V368.292H296.039V366.266C296.039 361.595 299.694 357.778 304.301 357.518Z" stroke="#E5E5E5"/>
<path d="M304.301 21.5498V32.3236C299.694 32.0645 296.039 28.247 296.039 23.5757V21.5498H304.301Z" stroke="#E5E5E5"/>
<path d="M182.212 327.535V341.348H132.693V327.535C132.693 313.86 143.778 302.775 157.452 302.775C171.127 302.775 182.212 313.86 182.212 327.535Z" stroke="#E5E5E5"/>
<path d="M136.061 49.3355H185.58V61.4653C185.58 75.1398 174.495 86.2251 160.82 86.2251C147.146 86.2251 136.061 75.1398 136.061 61.4653V49.3355Z" stroke="#E5E5E5"/>
<rect x="96.145" y="22.0498" width="129.351" height="53.5714" stroke="#E5E5E5" stroke-width="2"/>
<rect x="93.619" y="313.379" width="129.351" height="54.4134" stroke="#E5E5E5" stroke-width="2"/>
<rect x="132.693" y="21.5498" width="56.2554" height="19.2078" stroke="#E5E5E5"/>
<rect x="129.325" y="347.4" width="56.2554" height="20.8918" stroke="#E5E5E5"/>
<rect x="132.193" y="48.8355" width="58.9394" height="26.1017" fill="#3DEA00"/>
<rect x="132.193" y="48.8355" width="58.9394" height="26.1017" fill="url(#paint7_linear_0_1)"/>
<rect x="126.299" y="314.063" width="59.7814" height="27.7857" fill="#37D200"/>
<path d="M138.214 382.02H141.574V384H135.649V373.47H138.214V382.02ZM144.087 374.76C143.637 374.76 143.267 374.63 142.977 374.37C142.697 374.1 142.557 373.77 142.557 373.38C142.557 372.98 142.697 372.65 142.977 372.39C143.267 372.12 143.637 371.985 144.087 371.985C144.527 371.985 144.887 372.12 145.167 372.39C145.457 372.65 145.602 372.98 145.602 373.38C145.602 373.77 145.457 374.1 145.167 374.37C144.887 374.63 144.527 374.76 144.087 374.76ZM145.362 375.63V384H142.797V375.63H145.362ZM152.321 375.54C153.301 375.54 154.081 375.86 154.661 376.5C155.251 377.13 155.546 378 155.546 379.11V384H152.996V379.455C152.996 378.895 152.851 378.46 152.561 378.15C152.271 377.84 151.881 377.685 151.391 377.685C150.901 377.685 150.511 377.84 150.221 378.15C149.931 378.46 149.786 378.895 149.786 379.455V384H147.221V375.63H149.786V376.74C150.046 376.37 150.396 376.08 150.836 375.87C151.276 375.65 151.771 375.54 152.321 375.54ZM165.218 379.68C165.218 379.92 165.203 380.17 165.173 380.43H159.368C159.408 380.95 159.573 381.35 159.863 381.63C160.163 381.9 160.528 382.035 160.958 382.035C161.598 382.035 162.043 381.765 162.293 381.225H165.023C164.883 381.775 164.628 382.27 164.258 382.71C163.898 383.15 163.443 383.495 162.893 383.745C162.343 383.995 161.728 384.12 161.048 384.12C160.228 384.12 159.498 383.945 158.858 383.595C158.218 383.245 157.718 382.745 157.358 382.095C156.998 381.445 156.818 380.685 156.818 379.815C156.818 378.945 156.993 378.185 157.343 377.535C157.703 376.885 158.203 376.385 158.843 376.035C159.483 375.685 160.218 375.51 161.048 375.51C161.858 375.51 162.578 375.68 163.208 376.02C163.838 376.36 164.328 376.845 164.678 377.475C165.038 378.105 165.218 378.84 165.218 379.68ZM162.593 379.005C162.593 378.565 162.443 378.215 162.143 377.955C161.843 377.695 161.468 377.565 161.018 377.565C160.588 377.565 160.223 377.69 159.923 377.94C159.633 378.19 159.453 378.545 159.383 379.005H162.593Z" fill="#E2E2E2"/>
<path d="M170.478 373.47V379.77C170.478 380.4 170.633 380.885 170.943 381.225C171.253 381.565 171.708 381.735 172.308 381.735C172.908 381.735 173.368 381.565 173.688 381.225C174.008 380.885 174.168 380.4 174.168 379.77V373.47H176.733V379.755C176.733 380.695 176.533 381.49 176.133 382.14C175.733 382.79 175.193 383.28 174.513 383.61C173.843 383.94 173.093 384.105 172.263 384.105C171.433 384.105 170.688 383.945 170.028 383.625C169.378 383.295 168.863 382.805 168.483 382.155C168.103 381.495 167.913 380.695 167.913 379.755V373.47H170.478ZM181.099 376.815C181.349 376.425 181.694 376.11 182.134 375.87C182.574 375.63 183.089 375.51 183.679 375.51C184.369 375.51 184.994 375.685 185.554 376.035C186.114 376.385 186.554 376.885 186.874 377.535C187.204 378.185 187.369 378.94 187.369 379.8C187.369 380.66 187.204 381.42 186.874 382.08C186.554 382.73 186.114 383.235 185.554 383.595C184.994 383.945 184.369 384.12 183.679 384.12C183.099 384.12 182.584 384 182.134 383.76C181.694 383.52 181.349 383.21 181.099 382.83V387.99H178.534V375.63H181.099V376.815ZM184.759 379.8C184.759 379.16 184.579 378.66 184.219 378.3C183.869 377.93 183.434 377.745 182.914 377.745C182.404 377.745 181.969 377.93 181.609 378.3C181.259 378.67 181.084 379.175 181.084 379.815C181.084 380.455 181.259 380.96 181.609 381.33C181.969 381.7 182.404 381.885 182.914 381.885C183.424 381.885 183.859 381.7 184.219 381.33C184.579 380.95 184.759 380.44 184.759 379.8Z" fill="#FF6B35"/>
<rect x="135.761" y="384.619" width="41.6899" height="1.85467" fill="#E2E2E2"/>
<defs>
<linearGradient id="paint0_linear_0_1" x1="322" y1="0" x2="4.73529" y2="4.27895e-06" gradientUnits="userSpaceOnUse">
<stop stop-color="#42FF00"/>
<stop offset="1" stop-color="#40EA04" stop-opacity="0"/>
</linearGradient>
<radialGradient id="paint1_diamond_0_1" cx="0" cy="0" r="1" gradientUnits="userSpaceOnUse" gradientTransform="translate(160.82 327.956) rotate(90) scale(14.7348 160.82)">
<stop stop-color="#33C201"/>
<stop offset="1" stop-color="#38D900" stop-opacity="0"/>
</radialGradient>
<radialGradient id="paint2_diamond_0_1" cx="0" cy="0" r="1" gradientUnits="userSpaceOnUse" gradientTransform="translate(160.82 151.137) rotate(90) scale(14.7348 160.82)">
<stop stop-color="#33C201"/>
<stop offset="1" stop-color="#38D900" stop-opacity="0"/>
</radialGradient>
<radialGradient id="paint3_diamond_0_1" cx="0" cy="0" r="1" gradientUnits="userSpaceOnUse" gradientTransform="translate(160.82 210.077) rotate(90) scale(14.7348 160.82)">
<stop stop-color="#33C201"/>
<stop offset="1" stop-color="#38D900" stop-opacity="0"/>
</radialGradient>
<radialGradient id="paint4_diamond_0_1" cx="0" cy="0" r="1" gradientUnits="userSpaceOnUse" gradientTransform="translate(160.82 269.016) rotate(90) scale(14.7348 160.82)">
<stop stop-color="#33C201"/>
<stop offset="1" stop-color="#38D900" stop-opacity="0"/>
</radialGradient>
<radialGradient id="paint5_diamond_0_1" cx="0" cy="0" r="1" gradientUnits="userSpaceOnUse" gradientTransform="translate(160.82 24.4177) rotate(90) scale(23.5758 160.82)">
<stop stop-color="#33C201"/>
<stop offset="1" stop-color="#38D900" stop-opacity="0"/>
</radialGradient>
<radialGradient id="paint6_diamond_0_1" cx="0" cy="0" r="1" gradientUnits="userSpaceOnUse" gradientTransform="translate(160.82 92.198) rotate(90) scale(14.7348 160.82)">
<stop stop-color="#33C201"/>
<stop offset="1" stop-color="#38D900" stop-opacity="0"/>
</radialGradient>
<linearGradient id="paint7_linear_0_1" x1="191.132" y1="48.8355" x2="133.877" y2="48.8355" gradientUnits="userSpaceOnUse">
<stop stop-color="#3EEE00"/>
<stop offset="1" stop-color="#3EEE00" stop-opacity="0"/>
</linearGradient>
</defs>
</svg>
