<svg width="27" height="25" viewBox="0 0 27 25" fill="none" xmlns="http://www.w3.org/2000/svg">
<path d="M20.0722 0.410189C19.6811 0.138655 19.2393 0 18.7962 0C18.0692 0 17.344 0.334139 16.8904 0.984139C16.181 2.02962 16.4242 3.48508 17.4578 4.20263C18.4914 4.92017 19.91 4.67416 20.6396 3.62868C21.3693 2.58319 21.1058 1.12763 20.0722 0.410189ZM25.5442 4.77962C25.078 4.47216 24.4498 4.57458 24.1458 5.04611L21.9975 8.12111L18.3495 5.51765L16.87 4.45168C16.2823 4.02122 15.5932 3.81618 14.9042 3.81618H10.2835C9.93892 3.77521 9.59446 3.93918 9.39175 4.24664L6.71657 8.12101C6.41261 8.59254 6.51386 9.22805 6.98003 9.53551C7.44619 9.84296 8.07446 9.74055 8.37842 9.26901L10.7496 5.825H13.5262L6.31126 16.4235L1.79187 15.2141C1.02175 15.009 0.251625 15.4601 0.0489171 16.2186C-0.153791 16.9976 0.292125 17.7766 1.042 17.9816L6.55446 19.4782C6.89903 19.5602 7.30434 19.5396 7.6489 19.3347C7.91236 19.1912 8.05421 18.9042 8.21632 18.6992C8.37842 18.4941 10.7091 15.0912 10.7091 15.0912L15.1273 18.2687L16.019 23.3732C16.1609 24.1522 16.9107 24.6852 17.6809 24.5622C18.451 24.4187 18.9779 23.6602 18.8563 22.8812L17.8632 17.2027C17.8025 16.8337 17.5593 16.4852 17.2552 16.2803L13.7491 13.7998L17.8632 7.62931L21.7138 10.3353C22.18 10.6428 22.8083 10.5403 23.1122 10.0688L25.7874 6.17385C26.1116 5.74307 26.0103 5.08708 25.5442 4.77962ZM23.9706 16.9637C25.4143 16.9637 26.5846 18.1475 26.5846 19.6078C26.5846 21.0681 25.4143 22.2519 23.9706 22.2519C22.5269 22.2519 21.3566 21.0681 21.3566 19.6078C21.3566 18.1475 22.5269 16.9637 23.9706 16.9637Z" fill="white"/>
</svg>
