<svg width="76" height="38" viewBox="0 0 76 38" fill="none" xmlns="http://www.w3.org/2000/svg">
<path d="M67.8341 18.1993C65.1508 17.7252 62.1095 17.188 59.6588 15.874C53.4313 12.5288 30.1861 0.745389 29.2794 0.285885C29.0074 0.0987748 28.7035 0 28.3987 0C27.9101 0 27.4403 0.237541 27.1419 0.636335L23.7933 5.1265C23.6014 5.31457 23.5233 5.55436 23.5733 5.80604C23.731 6.60122 25.5151 7.61531 28.8778 8.82229C27.5025 9.50713 23.0266 10.9239 18.2618 10.9239C9.52895 10.9239 6.41328 7.08642 4.91576 5.2423C4.3435 4.53755 3.99819 4.11209 3.53018 4.11209C3.29761 4.11209 3.0893 4.22307 2.90685 4.44712C-1.68402 10.2824 0.201701 19.0941 1.57845 25.5281C1.64349 25.832 1.70742 26.1304 1.76941 26.4232C2.67959 30.7182 4.44035 31.3218 7.23801 31.9509C7.65495 32.0447 8.61331 32.1274 9.99584 32.2006L10.394 36.0236C10.4826 36.8752 11.2227 37.5424 12.0789 37.5424H14.5867C15.4429 37.5424 16.183 36.8753 16.2717 36.0238L16.6465 32.4253C17.4199 32.4432 18.2276 32.46 19.0643 32.4759L19.4339 36.0239C19.5227 36.8755 20.2628 37.5425 21.1189 37.5425H23.6265C24.4827 37.5425 25.2228 36.8755 25.3114 36.0239L25.6704 32.5774C32.8281 32.6658 40.989 32.7091 48.14 32.7295L48.4832 36.0241C48.572 36.8757 49.3121 37.5427 50.1682 37.5427H52.6756C53.532 37.5427 54.2719 36.8755 54.3604 36.0241L54.7022 32.743C55.5613 32.7441 56.3894 32.7448 57.1814 32.7454L57.5228 36.0243C57.6116 36.8758 58.3517 37.5428 59.2078 37.5428H61.7152C62.5713 37.5428 63.3113 36.8758 63.4002 36.0243L63.7744 32.4332C66.201 32.0322 68.6038 31.2611 70.6094 30.2054C74.0855 28.3757 75.9998 25.9152 75.9998 23.2768C76.0002 19.6421 72.2159 18.9735 67.8341 18.1993ZM48.8113 14.9838L36.5234 26.2316C36.5104 26.2412 36.503 26.2447 36.5038 26.2454L30.8255 26.2414C30.8192 26.2345 30.8165 26.224 30.8168 26.224L44.5099 13.8171C44.515 13.8163 44.5243 13.8163 44.5322 13.8174L48.8133 14.9624C48.8166 14.9667 48.8205 14.9752 48.8113 14.9838ZM25.3644 26.1534C25.3644 26.1534 25.3644 26.1534 25.3647 26.1532L19.3957 26.2297C19.3878 26.2297 19.383 26.2296 19.3771 26.2147C19.3714 26.2006 19.3742 26.1945 19.3735 26.1945C19.3734 26.1945 19.373 26.1948 19.3724 26.1953L37.5158 9.99474C37.5229 9.98864 37.5303 9.98703 37.5444 9.98944L41.8004 11.1335C41.8129 11.137 41.8147 11.1407 41.8161 11.1465C41.8186 11.1564 41.815 11.1649 41.8086 11.1709L25.3875 26.1394C25.3724 26.1501 25.3644 26.1534 25.3644 26.1534Z" fill="#939393"/>
</svg>
