<svg width="37" height="48" viewBox="0 0 37 48" fill="none" xmlns="http://www.w3.org/2000/svg">
<path d="M9.30322 13.737H27.6967C27.7064 13.737 27.7064 13.737 27.7161 13.737C28.7616 13.737 29.6135 13.0497 29.6135 12.1881C29.6135 12.0429 28.2485 4.1821 28.2485 4.1821C28.1227 3.41732 27.3192 2.84615 26.3705 2.84615L20.3974 2.85583V1.54893C20.3974 0.697017 19.5455 0 18.5 0C17.4544 0 16.6025 0.687336 16.6025 1.54893V2.86551L10.6198 2.8752C9.67109 2.8752 8.87726 3.44636 8.74173 4.21115L7.41546 11.9848C7.29929 13.3692 8.72237 13.737 9.30322 13.737Z" fill="#939393"/>
<path d="M35.1026 6.57327H32.5081C32.5081 6.57327 33.4084 11.7525 33.4084 12.1881C33.4084 15.1311 30.8527 17.5319 27.7161 17.5319H9.30324C7.40581 17.5707 3.1753 16.1089 3.6787 11.3459L4.49189 6.58295H1.89744C0.85191 6.58295 0 7.43486 0 8.48039V45.5481C0 46.5937 0.85191 47.4456 1.89744 47.4456H35.1026C36.1481 47.4456 37 46.5937 37 45.5481V8.47071C37 7.42518 36.1481 6.57327 35.1026 6.57327ZM27.6968 37.5615H9.30324C8.25772 37.5615 7.40581 36.7096 7.40581 35.6641C7.40581 34.6185 8.25772 33.7666 9.30324 33.7666H27.6968C28.7423 33.7666 29.5942 34.6185 29.5942 35.6641C29.5942 36.7096 28.752 37.5615 27.6968 37.5615ZM27.6968 26.8836H9.30324C8.25772 26.8836 7.40581 26.0317 7.40581 24.9861C7.40581 23.9406 8.25772 23.0887 9.30324 23.0887H27.6968C28.7423 23.0887 29.5942 23.9406 29.5942 24.9861C29.5942 26.0317 28.752 26.8836 27.6968 26.8836Z" fill="#939393"/>
</svg>
