<svg width="30" height="30" viewBox="0 0 30 30" fill="none" xmlns="http://www.w3.org/2000/svg">
<path d="M21.3077 0C22.3792 0 23.2478 1.15404 23.2478 2.57752C23.2478 4.00083 22.3792 5.15504 21.3077 5.15504C20.236 5.15504 19.3674 4.00083 19.3674 2.57752C19.3674 1.15404 20.2359 0 21.3077 0Z" fill="white"/>
<path d="M2.30408 15.5397C3.37558 15.5397 4.24427 16.6942 4.24427 18.1175C4.24427 19.5403 3.37558 20.6948 2.30408 20.6948C1.2327 20.6948 0.364014 19.5403 0.364014 18.1175C0.36395 16.6942 1.2327 15.5397 2.30408 15.5397Z" fill="white"/>
<path d="M18.4325 16.1479C19.7254 15.3673 21.5592 12.3571 22.845 10.0236C25.0312 14.4911 27.3112 19.8785 27.3726 21.1558C27.3234 22.1003 27.8508 22.9278 28.5636 23.0135C28.6043 23.0186 28.6445 23.0213 28.6841 23.0213C29.3557 23.0213 29.9286 22.3396 29.9908 21.4343C30.0587 20.4405 29.8028 18.6832 27.3898 13.181C26.1232 10.2918 24.858 7.7352 24.8048 7.6278C24.5755 7.16509 24.208 6.90193 23.8221 6.85688L19.7395 4.91539L19.4708 4.7872L19.3679 4.73875L19.3513 4.76259C19.2932 4.75199 19.2348 4.73875 19.1737 4.73875H13.5374C12.8119 4.73875 12.2238 5.51985 12.2238 6.48368C12.2238 7.44735 12.8119 8.22844 13.5374 8.22844H16.949L13.7318 12.8705L13.7342 12.8751L9.88321 17.4969C9.53173 17.9189 9.38932 18.5563 9.49016 19.1645L0.601048 26.7895C-0.00791982 27.3125 -0.183471 28.3923 0.210162 29.2014C0.461323 29.7185 0.883373 30 1.31443 30C1.55869 30 1.80525 29.9102 2.02519 29.7209L12.3004 20.9076L20.1619 22.6792C20.2364 22.6962 20.3103 22.704 20.3833 22.704C21.0118 22.704 21.5677 22.1016 21.6767 21.2509C21.7982 20.3014 21.3163 19.3998 20.6011 19.2386L15.5678 18.1041L17.5746 16.3835C17.8626 16.3872 18.1499 16.3182 18.4325 16.1479Z" fill="white"/>
</svg>
