<svg width="53" height="37" viewBox="0 0 53 37" fill="none" xmlns="http://www.w3.org/2000/svg">
<path d="M31.4669 18.1714C31.4669 16.0474 30.1264 14.2313 28.2472 13.5227V22.8202C30.1263 22.1116 31.4669 20.2955 31.4669 18.1714Z" fill="#939393"/>
<path d="M6.40659 11.8813H0V24.4616H6.40659V11.8813Z" fill="#939393"/>
<path d="M21.533 18.1714C21.533 20.2955 22.8735 22.1116 24.7527 22.8202V13.5227C22.8736 14.2313 21.533 16.0474 21.533 18.1714Z" fill="#939393"/>
<path d="M28.2472 0V9.89248C32.0772 10.6998 34.9614 14.1048 34.9614 18.1714C34.9614 22.2381 32.0773 25.643 28.2472 26.4504V36.3429H52.9999V27.956H43.0988V8.38681H52.9999V0H28.2472Z" fill="#939393"/>
<path d="M0 8.38681H9.9011V27.956H0V36.3429H24.7527V26.4504C20.9228 25.643 18.0385 22.2381 18.0385 18.1714C18.0385 14.1048 20.9227 10.6998 24.7527 9.89248V0H0V8.38681Z" fill="#939393"/>
<path d="M53 11.8813H46.5934V24.4616H53V11.8813Z" fill="#939393"/>
</svg>
