<svg width="177" height="69" viewBox="0 0 177 69" fill="none" xmlns="http://www.w3.org/2000/svg">
<path d="M11.65 48.4H22.85V55H3.1V19.9H11.65V48.4ZM31.2281 24.2C29.7281 24.2 28.4948 23.7667 27.5281 22.9C26.5948 22 26.1281 20.9 26.1281 19.6C26.1281 18.2667 26.5948 17.1667 27.5281 16.3C28.4948 15.4 29.7281 14.95 31.2281 14.95C32.6948 14.95 33.8948 15.4 34.8281 16.3C35.7948 17.1667 36.2781 18.2667 36.2781 19.6C36.2781 20.9 35.7948 22 34.8281 22.9C33.8948 23.7667 32.6948 24.2 31.2281 24.2ZM35.4781 27.1V55H26.9281V27.1H35.4781ZM58.6742 26.8C61.9409 26.8 64.5409 27.8667 66.4742 30C68.4409 32.1 69.4242 35 69.4242 38.7V55H60.9242V39.85C60.9242 37.9833 60.4409 36.5333 59.4742 35.5C58.5076 34.4667 57.2076 33.95 55.5742 33.95C53.9409 33.95 52.6409 34.4667 51.6742 35.5C50.7076 36.5333 50.2242 37.9833 50.2242 39.85V55H41.6742V27.1H50.2242V30.8C51.0909 29.5667 52.2576 28.6 53.7242 27.9C55.1909 27.1667 56.8409 26.8 58.6742 26.8ZM101.666 40.6C101.666 41.4 101.616 42.2333 101.516 43.1H82.1656C82.299 44.8333 82.849 46.1667 83.8156 47.1C84.8156 48 86.0323 48.45 87.4656 48.45C89.599 48.45 91.0823 47.55 91.9156 45.75H101.016C100.549 47.5833 99.699 49.2333 98.4656 50.7C97.2656 52.1667 95.749 53.3167 93.9156 54.15C92.0823 54.9833 90.0323 55.4 87.7656 55.4C85.0323 55.4 82.599 54.8167 80.4656 53.65C78.3323 52.4833 76.6656 50.8167 75.4656 48.65C74.2656 46.4833 73.6656 43.95 73.6656 41.05C73.6656 38.15 74.249 35.6167 75.4156 33.45C76.6156 31.2833 78.2823 29.6167 80.4156 28.45C82.549 27.2833 84.999 26.7 87.7656 26.7C90.4656 26.7 92.8656 27.2667 94.9656 28.4C97.0656 29.5333 98.699 31.15 99.8656 33.25C101.066 35.35 101.666 37.8 101.666 40.6ZM92.9156 38.35C92.9156 36.8833 92.4156 35.7167 91.4156 34.85C90.4156 33.9833 89.1656 33.55 87.6656 33.55C86.2323 33.55 85.0156 33.9667 84.0156 34.8C83.049 35.6333 82.449 36.8167 82.2156 38.35H92.9156Z" fill="#4AE812"/>
<path d="M116.5 19.9V40.9C116.5 43 117.017 44.6167 118.05 45.75C119.083 46.8833 120.6 47.45 122.6 47.45C124.6 47.45 126.133 46.8833 127.2 45.75C128.267 44.6167 128.8 43 128.8 40.9V19.9H137.35V40.85C137.35 43.9833 136.683 46.6333 135.35 48.8C134.017 50.9667 132.217 52.6 129.95 53.7C127.717 54.8 125.217 55.35 122.45 55.35C119.683 55.35 117.2 54.8167 115 53.75C112.833 52.65 111.117 51.0167 109.85 48.85C108.583 46.65 107.95 43.9833 107.95 40.85V19.9H116.5ZM151.904 31.05C152.737 29.75 153.887 28.7 155.354 27.9C156.821 27.1 158.537 26.7 160.504 26.7C162.804 26.7 164.887 27.2833 166.754 28.45C168.621 29.6167 170.087 31.2833 171.154 33.45C172.254 35.6167 172.804 38.1333 172.804 41C172.804 43.8667 172.254 46.4 171.154 48.6C170.087 50.7667 168.621 52.45 166.754 53.65C164.887 54.8167 162.804 55.4 160.504 55.4C158.571 55.4 156.854 55 155.354 54.2C153.887 53.4 152.737 52.3667 151.904 51.1V68.3H143.354V27.1H151.904V31.05ZM164.104 41C164.104 38.8667 163.504 37.2 162.304 36C161.137 34.7667 159.687 34.15 157.954 34.15C156.254 34.15 154.804 34.7667 153.604 36C152.437 37.2333 151.854 38.9167 151.854 41.05C151.854 43.1833 152.437 44.8667 153.604 46.1C154.804 47.3333 156.254 47.95 157.954 47.95C159.654 47.95 161.104 47.3333 162.304 46.1C163.504 44.8333 164.104 43.1333 164.104 41Z" fill="#FF6B35"/>
<rect x="3" y="60" width="138" height="3" fill="#4AE812"/>
</svg>
